<?xml version="1.0" encoding="UTF-8"?>
<svg id="Capa_2" data-name="Capa 2" xmlns="http://www.w3.org/2000/svg" viewBox="0 0 94 64">
  <defs>
    <style>
      .cls-1 {
        fill: #676767;
      }
    </style>
  </defs>
  <path class="cls-1" d="M26.31,8.29c-2.16.85-4.38,1.63-6.7,2.28-.15.04-.3.08-.44.12,0,0-.02,0-.03,0-.06.02-.12.03-.18.05-.32.08-.65.17-.98.24-.63.15-1.26.29-1.91.41-.64.12-1.28.23-1.93.33-.31.04-.62.08-.93.12-.15.02-.31.03-.47.05-.08,0-.15.01-.23.02-.03,0-.09,0-.14.01-.92.07-1.84.1-2.76.07-.23,0-.45-.02-.68-.03-.1,0-.2-.01-.3-.02-.04,0-.16-.01-.23-.02-.44-.04-.87-.1-1.3-.17-.44-.07-.87-.16-1.3-.27-.03,0-.12-.03-.17-.04-.08-.02-.16-.05-.24-.07-.23-.07-.46-.15-.69-.22-.42-.15-.82-.31-1.21-.49-.03-.01-.13-.06-.17-.08-.07-.04-.15-.08-.22-.11-.22-.11-.43-.23-.63-.36-.5-.3-1.28-.31-1.77,0-.47.3-.49.84,0,1.14,1.04.62,2.22,1.16,3.51,1.54.14.04.28.08.42.12.07.05.16.09.25.13.21.09.41.18.62.28.05.03.22.11.26.13.13.07.26.14.39.21.45.26.86.54,1.25.83.06.04.11.09.17.13-.02-.01.16.14.21.18.18.16.36.33.52.5.32.33.61.67.88,1.02.11.14.21.29.31.43.03.05.1.16.12.19.06.1.12.21.18.31.22.38.4.77.57,1.16.34.8.59,1.62.78,2.45.02.09.04.19.06.28,0,.04.02.09.02.11.01.07.02.14.04.2.05.27.09.54.13.81.07.53.12,1.06.16,1.58.07,1.04.09,2.07.09,3.11,0,.07.01.13.04.19v26.2c0,.44.56.81,1.24.81.68,0,1.26-.36,1.26-.8v-28.24c0-.69.05-1.39.06-2.08.01-1.03.02-2.06.07-3.09.03-.49.06-.99.12-1.48.03-.23.06-.46.1-.69.02-.11.04-.22.06-.34,0-.02,0-.05.01-.07,0,0,.03-.13.04-.16.1-.44.24-.88.42-1.31.08-.2.17-.39.27-.59.05-.1.1-.19.16-.28.03-.05.06-.09.08-.14,0-.01.01-.02.02-.03,0,0,0,0,0,0,.2-.29.43-.58.69-.85.06-.07.13-.13.2-.2.03-.03.12-.11.15-.14.14-.11.28-.21.43-.32.17-.11.35-.22.53-.32.04-.02.16-.08.21-.11.06-.03.12-.06.19-.09.44-.2.93-.36,1.42-.5,2.85-.72,5.58-1.67,8.18-2.69.58-.23.8-.72.45-1.1-.34-.37-1.13-.51-1.71-.29ZM19.05,10.73s-.07.02,0,0h0ZM9.45,13.62c1.5.05,3.02-.04,4.51-.22-.92,1.02-1.45,2.22-1.76,3.45-.66-1.17-1.57-2.28-2.75-3.23Z"/>
  <path class="cls-1" d="M32.06,52.89c.41-6.63-.04-13.25-.66-19.85,0-.69,0-1.38,0-2.07,0-.63.01-1.26,0-1.89-.02-.53-.06-1.05-.07-1.58,0-.28,0-.55.01-.83,0-.08.01-.17.02-.25,0,.05.04-.22.05-.29.02-.1.05-.2.09-.3.02-.05.05-.09.07-.13.02-.03.04-.06.06-.08.06-.07.12-.14.19-.21.16-.17.34-.33.52-.49.04-.03.16-.13.21-.17.07-.05.14-.1.21-.15.44-.31.9-.59,1.37-.86.21-.12.42-.23.64-.35-.05.69-.13,1.38-.22,2.06-.02.12-.03.24-.05.36,0,.01,0,.03,0,.05-.01.1-.03.21-.04.31-.06.42-.12.84-.18,1.26-.09.69-.18,1.38-.24,2.07-.06.68.6,1.26,1.24,1.26.72,0,1.2-.56,1.26-1.24.06-.66.14-1.31.22-1.97,0-.03,0-.06.01-.1,0,.03.03-.18.03-.21.02-.17.05-.35.07-.52.06-.42.12-.84.17-1.26.18-1.35.32-2.7.26-4.06-.02-.45-.23-.86-.63-1.09-.42-.24-.83-.18-1.26,0-1.12.48-2.23,1.03-3.27,1.67-.59.37-1.16.78-1.69,1.24-.06-.64-.12-1.29-.17-1.93-.06-.68-.51-1.26-1.24-1.26-.63,0-1.32.56-1.26,1.24.33,3.95.76,7.88,1.13,11.83,0,.5,0,1,0,1.5.05,6.1.21,12.19.65,18.27.05.68.52,1.26,1.24,1.26.71,0,1.22-.56,1.26-1.24Z"/>
  <path class="cls-1" d="M18.96,52.77c-.05-6.88.15-13.76-.02-20.63-.02-.64-.04-1.27-.06-1.91,0,0,.02,0,.03-.01.41-.15.84-.27,1.27-.35-.03,3.2.05,6.4.2,9.59.24,5.05.69,10.09,1.28,15.11.08.68.5,1.26,1.24,1.26.62,0,1.34-.56,1.26-1.24-.62-5.34-1.08-10.69-1.32-16.06-.13-2.92-.19-5.85-.16-8.77.45-.19.77-.7.78-1.17,0-.54-.3-.92-.73-1.12.08-2.6.24-5.2.51-7.79.07-.68-.61-1.26-1.24-1.26-.73,0-1.19.57-1.26,1.24-.27,2.55-.43,5.11-.51,7.68-.5.06-.99.16-1.47.3-.15-2.8-.39-5.58-.76-8.36-.09-.68-.94-1.04-1.53-.89-.32.09-.59.3-.76.58-.18.32-.17.6-.13.95,0,.05.01.11.02.16,0,.04.02.16.02.19.03.2.05.4.07.59.05.43.1.86.14,1.3.09.84.16,1.68.23,2.52.1,1.33.18,2.67.24,4-.3.18-.59.36-.87.56-.55.4-.81,1.09-.45,1.71.27.46.9.74,1.42.59.08,2.9.09,5.81.08,8.71-.01,4.16-.08,8.32-.05,12.48,0,.68.55,1.26,1.24,1.26.67,0,1.27-.56,1.26-1.24Z"/>
  <g>
    <path class="cls-1" d="M25.85,27.91c.65,0,1.3-.56,1.26-1.24-.03-.61-.08-1.23-.08-1.84,0-.27,0-.53.03-.8.01-.17.03-.33.05-.5,0-.06.01-.11.02-.17,0-.05.02-.17.03-.2.1-.68-.16-1.34-.88-1.54-.6-.16-1.44.2-1.54.88-.11.72-.2,1.44-.21,2.16,0,.66.05,1.32.08,1.98.03.68.53,1.26,1.24,1.26Z"/>
    <path class="cls-1" d="M28.18,52.57c-.06-.41-.12-.83-.18-1.24-.02-.18-.05-.35-.07-.53,0-.05-.02-.16-.02-.18-.02-.14-.03-.28-.05-.42-.11-.88-.2-1.75-.29-2.63-.17-1.77-.3-3.54-.4-5.32-.2-3.54-.26-7.09-.23-10.63,0-.35,0-.7,0-1.05,0-.68-.56-1.26-1.24-1.26-.68,0-1.25.56-1.26,1.24-.08,7.16.18,14.33,1.14,21.42.06.41.12.83.18,1.24.1.68.93,1.05,1.53.89.72-.19.99-.86.89-1.53Z"/>
  </g>
  <path class="cls-1" d="M49.5,26.32c-1.02-.96-2.44-1.49-3.83-1.5-1.15-.01-2.27.35-3.33.75-.44.17-.88.34-1.33.47-.15.04-.29.08-.44.11-.04,0-.09.01-.12.01-.05,0-.09,0-.14,0-.04,0-.08-.02-.12-.02-.02-.01-.04-.02-.06-.04-.08-.07-.15-.13-.22-.21,0-.01-.02-.03-.03-.05,0-.02-.02-.03-.03-.05-.01-.04-.02-.1-.03-.14,0-.07,0-.13,0-.2,0,0,0,0,0-.01.02-.11.05-.21.08-.31.02-.08.05-.15.08-.22.02-.05.04-.09.07-.14.1-.21.22-.41.34-.6.06-.09.12-.18.18-.27.03-.04.06-.08.09-.12.28-.36.59-.69.93-1.01.15-.14.31-.28.47-.41,0,0,.02-.01.03-.02.07-.05.15-.11.23-.16.15-.1.31-.18.47-.25.02,0,.04-.02.06-.03.12-.05.24-.09.37-.13.24-.08.48-.14.72-.19.04,0,.14-.02.2-.03.09,0,.17-.01.26-.02.11,0,.22,0,.33,0,.04,0,.08,0,.13,0,.1.02.21.05.31.08.03,0,.06.02.09.03,0,0,.02,0,.02.01.09.04.17.09.25.14.04.04.08.08.12.12.04.04.07.07.1.11,0,0,0,0,0,0,.09.12.16.26.22.39.3.61,1.16.77,1.71.45.62-.36.75-1.1.45-1.71-.67-1.36-2.03-2.09-3.52-2.14-.64-.02-1.3.1-1.92.28-.55.16-1.13.38-1.62.69-.88.55-1.65,1.32-2.28,2.13-.77.99-1.43,2.12-1.47,3.41-.04,1.36.89,2.49,2.11,2.97.93.36,2.02.04,2.91-.29.91-.33,1.8-.71,2.75-.88.04,0,.24-.03.31-.03.13,0,.26,0,.39,0,.1,0,.2,0,.3.02.02,0,.03,0,.05,0,.09.02.18.04.27.06.14.03.27.08.41.13.01,0,.03.01.05.02.04.02.09.04.13.06.14.07.28.15.42.23.07.04.14.09.21.14,0,0,.01,0,.02.01.11.1.22.2.32.31.05.06.1.11.15.17.01.02.03.03.04.05.19.26.36.54.51.82.08.16.16.31.23.47,0,.02.02.04.02.05.03.08.06.15.09.23.14.38.26.77.36,1.16.11.42.2.84.27,1.27.03.2.06.4.09.6,0,.03,0,.07.01.1.02.13.03.26.04.39.1.97.12,1.95.11,2.93-.02,1.03-.09,2.05-.2,3.07-.03.23-.06.47-.09.7,0,.05-.01.1-.02.15-.02.14-.04.29-.07.43-.08.51-.18,1.02-.28,1.52-.2.98-.45,1.95-.75,2.91-.14.45-.3.91-.47,1.35-.06.17-.13.34-.2.5-.02.06-.06.13-.07.17-.05.11-.1.23-.15.34-.34.75-.74,1.47-1.21,2.15-.05.07-.1.15-.16.22,0,0,0,0,0,0-.11.14-.23.28-.35.41-.21.23-.43.45-.67.65-.06.04-.12.08-.18.12-.13.08-.26.16-.4.23-.02.01-.05.02-.08.04,0,0-.02,0-.02,0-.07.02-.14.05-.21.06-.02,0-.04,0-.06.01-.16.01-.33.01-.5,0-.08-.02-.15-.03-.23-.06-.02,0-.04-.01-.07-.02-.03-.01-.05-.03-.08-.04-.05-.03-.1-.06-.15-.09,0,0,0,0-.01-.01-.09-.08-.17-.16-.24-.25,0-.01-.02-.02-.02-.03-.05-.08-.1-.15-.15-.23-.07-.12-.13-.24-.19-.37,0-.02-.01-.03-.02-.05-.04-.1-.07-.2-.1-.29-.12-.38-.21-.76-.27-1.15-.02-.1-.03-.2-.05-.3,0-.01,0-.03,0-.04-.03-.22-.05-.44-.06-.65-.13-1.73-.02-3.48.13-5.21.12-1.39.22-2.76.28-4.16.11-2.51.18-5.02.18-7.53,0-.68-.56-1.26-1.24-1.26-.68,0-1.26.56-1.26,1.24,0,2.94-.11,5.86-.24,8.8-.06,1.39-.23,2.77-.32,4.16-.12,1.85-.14,3.71.16,5.55.26,1.57.94,3.41,2.49,4.13,3.6,1.68,6.35-2.26,7.59-5.08,1.68-3.81,2.45-8.06,2.51-12.21.03-1.95-.12-3.93-.61-5.82-.4-1.56-1.08-3.18-2.28-4.3ZM45.21,21.65c-.18-.07-.08-.03,0,0h0ZM44.82,21.55c-.28-.03-.09-.01,0,0h0ZM39.86,25.86s0,0-.01-.01c0,0,0-.01,0-.02,0,0,0-.01,0-.02,0,.02.02.03.02.05ZM39.84,25.84s-.02-.02-.03-.03h0s.01.02.03.03ZM39.81,25.8h0s-.02-.03,0,0ZM39.85,25.85s0,.01.01.02c.07.16.02.07-.01-.02ZM40.07,26.1s-.06-.02,0,0h0ZM46.03,27.34c-.12-.01-.07,0,0,0h0ZM42.16,48.69h0c.04.27.01.09,0,0ZM43.15,51.35c-.06-.04-.12-.09,0,0h0ZM44.59,51.5c.18-.08.1-.04,0,0h0Z"/>
  <path class="cls-1" d="M69.85,51.21c-.74-4.93-1.38-9.87-1.77-14.82-.39-4.94-.53-9.88-.35-14.82.14-4.02.48-8.05,1.01-12.06.06-.44-.6-.81-1.24-.82-.72,0-1.2.36-1.26.8-.68,5.22-1.05,10.45-1.08,15.68-.03,4.91.25,9.81.74,14.71.38,3.78.89,7.55,1.45,11.31,0,.04.02.08.03.12-.03.08-.06.17-.09.25-.03.06-.06.12-.09.17-.01.02-.03.04-.05.06-.08.1-.17.19-.26.29-.01.01-.03.02-.04.03-.07.05-.15.1-.22.15-.06.04-.12.07-.18.1,0,0-.02,0-.03.01-.16.07-.34.14-.52.2-.03.01-.07.02-.1.03-.05.01-.11.03-.15.04-.2.04-.4.08-.6.11-.09.01-.19.03-.29.04-.03,0-.09,0-.13.01-.17.01-.34.02-.51.02-.2,0-.4,0-.6,0-.1,0-.2,0-.3-.02-.04,0-.09,0-.13,0-.4-.04-.79-.1-1.18-.18-.09-.02-.19-.04-.28-.06-.04,0-.11-.03-.17-.04-.14-.04-.28-.09-.42-.14-.15-.05-.3-.11-.45-.17-.06-.03-.13-.05-.19-.08,0,0,0,0,0,0-.13-.07-.25-.14-.36-.21-.06-.04-.2-.15-.25-.19-.05-.05-.1-.1-.15-.15-.04-.04-.07-.08-.1-.12,0,0,0,0,0,0-.04-.08-.08-.16-.11-.25,0,0,0-.02,0-.03,0-.03,0-.05,0-.08,0-.03,0-.06-.01-.09.89-3.75,1.39-7.54,1.72-11.33.36-4.03.51-8.08.55-12.12.03-3.53-.03-7.07-.18-10.6-.1-2.27-.22-4.55-.46-6.82-.02-.23-.05-.46-.08-.68-.06-.44-.51-.81-1.24-.82-.63,0-1.32.36-1.26.8.26,1.94.35,3.9.46,5.85.18,3.35.26,6.7.27,10.05,0,4-.1,8-.38,12-.27,3.9-.69,7.81-1.48,11.69-.03.16-.07.32-.1.48,0,.02-.01.05-.01.07-.02.08-.04.17-.06.25-.07.31-.14.62-.22.94-.02.07-.02.13-.02.19,0,.04-.01.08-.01.12.06,1.24,1.4,2.21,3.05,2.75,1.73.57,3.75.75,5.65.5,2.14-.28,3.9-1.34,4.23-2.76.02-.09.03-.17.02-.25,0-.04,0-.08,0-.12ZM66.4,52.4c-.07.04-.19.09,0,0h0ZM67.18,51.76c-.03.05-.1.15,0,0h0Z"/>
  <path class="cls-1" d="M79.03,27.7c-.56-.94-1.25-1.81-1.96-2.64-1.42-1.67-3.06-3.24-4.92-4.4-.83-.52-1.83-1.02-2.84-.99-.74.02-1.19.54-1.26,1.24-.16,1.49.18,3.02.59,4.44.42,1.43.96,2.82,1.4,4.24.46,1.51.83,3.05,1.2,4.58-.47.19-.93.41-1.35.69-.57.38-.8,1.1-.45,1.71.33.56,1.14.82,1.71.45.22-.14.44-.27.68-.38.01.06.03.12.04.18.18,1.54.39,3.07.59,4.61.05.36.1.73.14,1.09.02.15.04.31.06.46,0,.04.01.1.02.12.02.12.03.24.05.37.1.78.19,1.55.28,2.33.26,2.37.43,4.76.49,7.15.02.68.55,1.26,1.24,1.26.69,0,1.24-.56,1.26-1.24.08-3.23-.04-6.47-.45-9.68-.3-2.36-.73-4.69-1.24-7.01-.02-.19-.04-.38-.06-.57.74-.27,1.48-.55,2.21-.87.91-.41,1.83-.92,2.51-1.66.4-.43.68-.91.89-1.46.21-.57.19-1.17.11-1.76-.11-.79-.53-1.57-.94-2.24ZM76.83,31.76s0,0-.01.01c0,0-.01.01-.02.02-.09.06-.18.12-.27.18-.21.13-.42.25-.64.37-.21.11-.43.21-.64.31-.1.04-.2.09-.3.13-.06.03-.12.05-.18.07-.25.1-.5.2-.76.29-.17-2.1-.25-4.21-.23-6.31,0-.68-.56-1.26-1.24-1.26-.42,0-.8.21-1.03.54-.25-.75-.49-1.5-.68-2.27-.06-.26-.12-.52-.17-.77-.03-.14-.05-.28-.07-.42.04.03.09.05.13.08.37.22.71.46,1.05.71.06.04.16.12.2.15.1.08.2.16.29.24.22.18.43.36.63.55.83.74,1.6,1.54,2.33,2.38.17.2.34.4.5.6.03.03.1.12.14.18.06.08.13.17.19.25.29.38.56.78.81,1.19.11.17.21.35.3.53.04.08.09.17.13.25.02.04.05.1.07.16.04.1.07.2.1.31.02.07.04.14.05.21,0,0,0,0,0,0,0,.1,0,.19,0,.29,0,.02,0,.03,0,.04-.02.08-.04.16-.06.24,0,0,0,0,0,0,0,.01-.01.03-.02.04-.04.08-.09.16-.14.24,0,0-.01.01-.02.02-.14.16-.29.31-.45.44ZM77.3,31.29c.12-.17.05-.07,0,0h0ZM77.49,30.94c.03-.07.02-.04,0,0h0ZM77.54,30.73s0,.01,0,.01c.03-.26.02-.1,0-.01Z"/>
  <path class="cls-1" d="M89.78,31.88c-.21-.65-.85-1.07-1.53-.89-.64.17-1.09.88-.89,1.53.47,1.48.87,2.99,1.17,4.51.14.68.25,1.37.35,2.05,0,.02,0,.04,0,.07,0,.05.01.1.02.15.02.15.04.31.05.46.03.33.06.65.08.98.08,1.14.08,2.28,0,3.42-.02.25-.04.49-.07.74,0,.05-.02.18-.03.25-.01.08-.03.17-.04.25-.07.46-.17.91-.28,1.36-.11.41-.23.82-.38,1.22-.03.09-.07.18-.1.27,0,.02-.02.04-.03.07-.07.16-.15.33-.23.49-.16.32-.34.63-.53.93-.08.12-.16.23-.24.35,0,0,0,0,0,0-.06.07-.11.14-.17.21-.2.23-.41.44-.64.64-.03.03-.07.05-.1.08-.11.08-.23.16-.35.23-.11.07-.22.13-.34.19-.04.02-.07.03-.11.05-.22.08-.45.14-.68.19-.02,0-.05,0-.07,0-.13,0-.25,0-.38,0-.05,0-.15-.01-.23-.02-.07-.01-.14-.03-.2-.05-.12-.03-.23-.06-.34-.1-.01,0-.03-.01-.04-.02-.02,0-.04-.02-.06-.03-.22-.1-.42-.23-.62-.37-.05-.04-.09-.08-.14-.12-.11-.1-.22-.21-.33-.31-.1-.1-.2-.21-.29-.33,0,0,0-.01-.01-.02-.04-.05-.07-.1-.11-.15-.2-.28-.37-.57-.53-.87-.08-.16-.16-.31-.23-.47,0-.02-.02-.04-.02-.06-.03-.08-.06-.15-.09-.23-.1-.27-.15-.57-.21-.85-.02-.1-.04-.2-.05-.31,0-.04-.01-.09-.01-.11-.01-.1-.02-.2-.03-.31-.05-.66-.03-1.32.03-1.98.02-.16.03-.32.05-.47,0,0,0-.01,0-.02.01-.08.03-.16.04-.25.06-.36.13-.71.21-1.07.16-.7.35-1.39.57-2.07.22-.69.47-1.37.74-2.05.06-.16.13-.32.19-.48.02-.04.04-.09.05-.13.02-.04.04-.11.06-.13.14-.34.29-.68.45-1.02.33-.74.68-1.48,1.04-2.21.15.27.29.54.42.81.3.61,1.16.77,1.71.45.62-.36.75-1.1.45-1.71-.36-.74-.79-1.46-1.31-2.11.77-1.54,1.54-3.07,2.3-4.62.48-.99.95-1.98,1.4-2.98.31-.71.68-1.45.86-2.21.04-.18.09-.38.07-.57-.04-.35-.11-.64-.37-.9-.33-.32-.77-.41-1.2-.32-1.89.4-3.66,1.35-5.21,2.49-.55.4-.82,1.08-.45,1.71.32.54,1.16.85,1.71.45.69-.51,1.42-.97,2.18-1.37-.27.58-.54,1.16-.82,1.74-.78,1.62-1.58,3.22-2.39,4.83-.46-.32-.94-.63-1.41-.93-.57-.37-1.38-.11-1.71.46-.35.61-.11,1.34.46,1.71.43.28.87.56,1.29.85.08.06.16.11.24.17-1.02,2.07-2.01,4.16-2.8,6.33-1,2.74-1.65,5.66-1.25,8.58.41,2.95,2.69,6.03,5.85,6.22,2.89.17,5.13-2.32,6.15-4.77,1.82-4.34,1.44-9.32.45-13.82-.28-1.26-.62-2.51-1.01-3.74Z"/>
  <g>
    <path class="cls-1" d="M91.94,21.87c-.95,0-1.72-.77-1.72-1.72s.77-1.72,1.72-1.72,1.72.77,1.72,1.72-.77,1.72-1.72,1.72ZM91.94,18.69c-.81,0-1.46.66-1.46,1.46s.66,1.46,1.46,1.46,1.46-.66,1.46-1.46-.66-1.46-1.46-1.46Z"/>
    <path class="cls-1" d="M91.26,21.22c-.01-.13-.02-.26-.03-.38-.01-.18-.02-.36-.02-.54,0-.11,0-.21,0-.32v-.32c0-.16-.01-.32-.02-.47,0-.05-.01-.11.04-.18.03-.04.07-.05.13-.06l.14-.02c.1-.01.2-.02.31-.02.07,0,.14,0,.2.02.46.09.68.26.72.56,0,.02,0,.04,0,.07,0,.24-.15.46-.37.55-.02,0-.04.01-.06.02,0,0-.03.03-.01.06.02.03.04.06.07.1.02.02.03.04.05.06.1.15.35.46.46.59v.02s.03.03.04.06c.01.02.02.04.02.05,0,.04-.03.07-.07.11-.03.02-.06.03-.1.03s-.09-.03-.13-.06c-.06-.06-.11-.13-.16-.19-.13-.14-.3-.37-.44-.57-.03-.05-.07-.09-.1-.14-.02-.02-.03-.03-.03-.03s-.02,0-.03,0h-.03s-.07,0-.1,0c-.04,0-.07,0-.11,0h-.02s-.04,0-.04,0h-.01v.34c.01.22.03.44.04.54,0,.03.01.07.01.1,0,.1-.05.16-.16.17-.1,0-.19-.06-.2-.15ZM92.21,19.84c.12-.04.2-.2.19-.34-.02-.14-.11-.17-.24-.24-.1-.05-.21-.07-.34-.07-.07,0-.15,0-.23.02-.03,0-.05.02-.05.05l.02.29.02.3s.02.05.05.05h.06s.09.02.14.02c.14,0,.27-.04.4-.08Z"/>
  </g>
</svg>